<svg aria-hidden="true" style="position: absolute; width: 0; height: 0; overflow: hidden;" version="1.1" xmlns="http://www.w3.org/2000/svg" xmlns:xlink="http://www.w3.org/1999/xlink">
<defs>
<symbol id="icon-burger-menu" viewBox="0 0 44 32">
<path d="M3.339 0.515c-1.141 0-2.065 0.924-2.065 2.065s0.924 2.065 2.065 2.065h38.194c1.141 0 2.065-0.924 2.065-2.065s-0.924-2.065-2.065-2.065h-38.194zM3.339 13.934c-1.141 0-2.065 0.924-2.065 2.065s0.924 2.065 2.065 2.065h38.194c1.141 0 2.065-0.924 2.065-2.065s-0.924-2.065-2.065-2.065h-38.194zM3.339 27.354c-1.141 0-2.065 0.924-2.065 2.065s0.924 2.065 2.065 2.065h38.194c1.141 0 2.065-0.924 2.065-2.065s-0.924-2.065-2.065-2.065h-38.194z"></path>
</symbol>
<symbol id="icon-cart" viewBox="0 0 34 32">
<path d="M9.867 8.782l2.933 8.356 13.6-0.907 3.36-7.449h-19.893zM33.636 7.84v0l-4.764 10.56c-0.231 0.516-0.747 0.889-1.351 0.924l-13.689 0.924 0.782 2.258h14.898c1.742 0 3.164 1.422 3.164 3.164s-1.422 3.164-3.164 3.164c-1.742 0-3.164-1.422-3.164-3.164h-14.756c0 1.742-1.422 3.164-3.164 3.164s-3.164-1.422-3.164-3.164 1.422-3.164 3.164-3.164h2.862l-6.080-17.422h-3.627c-0.871-0.018-1.582-0.729-1.582-1.582s0.711-1.6 1.582-1.6h4.764c0.693 0 1.262 0.444 1.493 1.049v0l0.924 2.631h23.413c0.889 0 1.6 0.711 1.6 1.6 0 0.231-0.053 0.444-0.142 0.658z"></path>
</symbol>
<symbol id="icon-clock" viewBox="0 0 34 32">
<path d="M1.353 10.188c-0.839-1.070-1.353-2.424-1.353-3.892 0-3.473 2.822-6.295 6.295-6.295 1.469 0 2.822 0.504 3.892 1.353-3.955 1.7-7.134 4.868-8.834 8.834v0zM23.082 18.361h-6.295c-0.871 0-1.574-0.703-1.574-1.574v-8.393c0-0.871 0.703-1.574 1.574-1.574s1.574 0.703 1.574 1.574v6.82h4.721c0.871 0 1.574 0.703 1.574 1.574s-0.703 1.574-1.574 1.574zM16.787 4.721c-6.662 0-12.066 5.403-12.066 12.066s5.403 12.066 12.066 12.066 12.066-5.403 12.066-12.066-5.403-12.066-12.066-12.066zM32 16.787c0 4.039-1.584 7.701-4.155 10.429l2.13 2.13c0.283 0.283 0.451 0.671 0.451 1.102 0 0.86-0.692 1.553-1.553 1.553-0.43 0-0.818-0.178-1.102-0.451l-2.287-2.287c-2.466 1.721-5.456 2.738-8.698 2.738s-6.222-1.018-8.687-2.728l-2.277 2.266c-0.283 0.283-0.671 0.462-1.112 0.462-0.871 0-1.574-0.703-1.574-1.574 0-0.441 0.178-0.829 0.462-1.112l2.109-2.109c-2.56-2.728-4.144-6.379-4.144-10.418 0-8.404 6.809-15.213 15.213-15.213s15.213 6.809 15.224 15.213v0zM32.252 9.978c-1.658-3.882-4.774-6.988-8.645-8.645 1.049-0.829 2.371-1.322 3.809-1.322 3.41 0 6.159 2.759 6.159 6.159 0 1.437-0.493 2.759-1.322 3.809z"></path>
</symbol>
<symbol id="icon-close" viewBox="0 0 33 32">
<path d="M30.957 5.162c1.037-1.037 1.030-2.713 0-3.743l-0.090-0.090c-1.030-1.030-2.706-1.037-3.743 0l-10.497 10.511c-0.271 0.271-0.71 0.264-0.981 0l-10.511-10.504c-1.037-1.037-2.713-1.030-3.743 0l-0.083 0.083c-1.030 1.030-1.037 2.706 0 3.743l10.511 10.511c0.271 0.271 0.264 0.71 0 0.981l-10.511 10.504c-1.037 1.037-1.030 2.713 0 3.743l0.090 0.090c1.030 1.030 2.706 1.037 3.743 0l10.511-10.511c0.271-0.271 0.71-0.264 0.981 0l10.497 10.504c1.037 1.037 2.713 1.030 3.743 0l0.090-0.090c1.030-1.030 1.037-2.706 0-3.743l-10.511-10.504c-0.271-0.271-0.264-0.71 0-0.981l10.504-10.504z"></path>
</symbol>
<symbol id="icon-creativity" viewBox="0 0 34 32">
<path d="M14.381 11.422c0.405 0 0.761 0.164 1.022 0.424l0.906 0.906 2.834-2.834c0.26-0.26 0.627-0.424 1.022-0.424 0.8 0 1.446 0.646 1.446 1.446 0 0.395-0.164 0.761-0.424 1.022l-3.855 3.855c-0.26 0.26-0.627 0.424-1.022 0.424s-0.761-0.164-1.022-0.424l-1.928-1.928c-0.26-0.26-0.424-0.627-0.424-1.022 0-0.8 0.646-1.446 1.446-1.446zM30.284 4.675h-26.024v16.386h26.024v-16.386zM30.766 24.916h-9.157v2.41l1.928 1.928v0.482h-12.53v-0.482l1.928-1.928v-2.41h-9.157c-0.8 0-1.446-0.646-1.446-1.446v-19.277c0-0.8 0.646-1.446 1.446-1.446h26.988c0.8 0 1.446 0.646 1.446 1.446v19.277c0 0.8-0.646 1.446-1.446 1.446z"></path>
</symbol>
<symbol id="icon-csshtml" viewBox="0 0 34 32">
<path d="M14.467 19.065h-5.783v5.783h5.783v-5.783zM29.407 19.065v10.12c0 0.8-0.646 1.446-1.446 1.446h-2.892v-11.566h-5.783v11.566h-13.494c-0.8 0-1.446-0.646-1.446-1.446v-10.12l12.53-12.53 12.53 12.53zM32.299 16.655c0 0.8-0.646 1.446-1.446 1.446-0.376 0-0.723-0.145-0.983-0.386v0l-12.993-12.983-12.954 12.964c-0.26 0.26-0.617 0.414-1.012 0.414-0.8 0-1.446-0.646-1.446-1.446 0-0.405 0.173-0.781 0.443-1.041l13.937-13.937c0.26-0.27 0.636-0.443 1.041-0.443 0.029 0 0.048 0 0.077 0h0.010c0 0 0.039 0 0.067 0v0c0.357 0.039 0.665 0.202 0.896 0.453l5.687 5.687v-1.33c0-0.8 0.646-1.446 1.446-1.446s1.446 0.646 1.446 1.446v4.222l5.398 5.398c0.241 0.26 0.395 0.607 0.395 0.983h-0.010z"></path>
</symbol>
<symbol id="icon-digital" viewBox="0 0 34 32">
<path d="M20.742 24.135h4.337v-4.337c0-0.8 0.646-1.446 1.446-1.446s1.446 0.646 1.446 1.446v7.229h-7.229c-0.8 0-1.446-0.646-1.446-1.446s0.646-1.446 1.446-1.446zM20.742 4.858h7.229v7.229c0 0.8-0.646 1.446-1.446 1.446s-1.446-0.646-1.446-1.446v-4.337h-4.337c-0.8 0-1.446-0.646-1.446-1.446s0.646-1.446 1.446-1.446zM5.802 19.798v0c0-0.8 0.646-1.446 1.446-1.446s1.446 0.646 1.446 1.446v4.337h4.337c0.8 0 1.446 0.646 1.446 1.446s-0.646 1.446-1.446 1.446h-7.229v-7.229zM7.73 4.858h5.301c0.8 0 1.446 0.646 1.446 1.446s-0.646 1.446-1.446 1.446h-4.337v4.337c0 0.8-0.646 1.446-1.446 1.446s-1.446-0.646-1.446-1.446v-7.229h1.928zM29.417 3.412h-25.060v25.060h25.060v-25.060zM30.863 31.364h-27.952c-0.8 0-1.446-0.646-1.446-1.446v-27.952c0-0.8 0.646-1.446 1.446-1.446h27.952c0.8 0 1.446 0.646 1.446 1.446v27.952c0 0.8-0.646 1.446-1.446 1.446z"></path>
</symbol>
<symbol id="icon-facebook" viewBox="0 0 16 32">
<path d="M15.594 0v5.145c0 0-3.803-0.369-4.751 1.071-0.517 0.812-0.209 3.126-0.258 4.8h5.034c-0.431 1.957-0.738 3.286-1.046 4.972h-4.025v16.012h-6.966c0-4.935 0-10.683 0-15.926h-2.978v-5.046h2.942c0.148-3.668 0.209-7.311 2.031-9.182 2.068-2.092 4.012-1.834 10.006-1.834l0.012-0.012z"></path>
</symbol>
<symbol id="icon-instagram" viewBox="0 0 34 32">
<path d="M27.3 13.755h-2.476c0.189 0.692 0.294 1.427 0.294 2.182 0 4.543-3.683 8.226-8.226 8.226s-8.226-3.683-8.226-8.226c0-0.755 0.105-1.49 0.294-2.182h-2.476v11.247c0 0.745 0.598 1.343 1.343 1.343h18.13c0.745 0 1.343-0.598 1.343-1.343v-11.247zM27.3 6.872c0-0.745-0.598-1.343-1.343-1.343h-2.686c-0.745 0-1.343 0.598-1.343 1.343v2.686c0 0.745 0.598 1.343 1.343 1.343h2.686c0.745 0 1.343-0.598 1.343-1.343v-2.686zM16.892 10.733c-2.098 0-3.892 1.238-4.721 3.022v0c0 0-0.011 0.042-0.021 0.052-0.052 0.105-0.094 0.22-0.136 0.336-0.021 0.052-0.042 0.105-0.063 0.168-0.042 0.115-0.073 0.241-0.105 0.357-0.011 0.052-0.031 0.115-0.042 0.168-0.021 0.126-0.042 0.252-0.063 0.388 0 0.052-0.021 0.105-0.021 0.157-0.021 0.189-0.031 0.367-0.031 0.556 0 2.875 2.329 5.204 5.204 5.204s5.204-2.329 5.204-5.204c0-0.189-0.011-0.378-0.031-0.556 0-0.052-0.021-0.105-0.021-0.157-0.021-0.126-0.042-0.262-0.063-0.388 0-0.052-0.031-0.115-0.042-0.168-0.031-0.115-0.063-0.241-0.105-0.357-0.021-0.052-0.042-0.105-0.063-0.168-0.042-0.115-0.084-0.231-0.136-0.336 0-0.021-0.011-0.042-0.021-0.052v0c-0.829-1.784-2.623-3.022-4.721-3.022zM26.964 29.367h-20.144c-1.857 0-3.357-1.5-3.357-3.357v-20.144c0-1.857 1.5-3.357 3.357-3.357h20.144c1.857 0 3.357 1.5 3.357 3.357v20.144c0 1.857-1.5 3.357-3.357 3.357z"></path>
</symbol>
<symbol id="icon-magnifier" viewBox="0 0 34 32">
<path d="M13.333 2.987c-4.978 0-9.013 4.036-9.013 9.013s4.036 9.013 9.013 9.013 9.013-4.036 9.013-9.013-4.053-9.013-9.013-9.013zM32.462 26.862c0.551 0.551 0.871 1.298 0.871 2.133 0 1.653-1.351 3.004-3.004 3.004-0.818 0-1.582-0.32-2.133-0.871l-8.782-8.782c-1.778 1.049-3.858 1.671-6.098 1.671-6.649 0-12-5.369-12-12s5.369-12.018 12.018-12.018 12 5.387 12 12c0 2.222-0.622 4.302-1.671 6.098l8.782 8.782 0.018-0.018z"></path>
</symbol>
<symbol id="icon-pinterest" viewBox="0 0 24 32">
<path d="M10.068 20.591c-0.258 1.022-0.517 2.105-0.788 3.151-0.271 1.034-0.492 2.092-0.886 3.040-0.64 1.575-1.452 3.102-2.511 4.332-0.702 0.825-0.554 0.492-0.763 0.443-0.16-0.037-0.185-0.185-0.209-0.418-0.172-1.255-0.062-2.695 0-4.111 0.074-1.6 0.406-2.942 0.726-4.271 0.591-2.535 1.169-5.034 1.76-7.594 0.037-0.172 0.148-0.455 0.111-0.542-0.271-0.714-0.455-1.354-0.529-2.092-0.086-0.849-0.012-1.662 0.172-2.388 0.345-1.305 1.12-2.462 2.326-2.88 0.763-0.271 1.625-0.148 2.129 0.16 0.529 0.32 0.898 0.825 1.071 1.526 0.185 0.751 0.049 1.662-0.098 2.326-0.332 1.502-0.763 2.622-1.157 4.074-0.197 0.726-0.418 1.452-0.234 2.228 0.172 0.714 0.542 1.194 1.046 1.563 0.529 0.382 1.145 0.591 1.994 0.554 1.514-0.049 2.56-1.022 3.262-1.932 1.12-1.452 1.809-3.422 2.055-5.772 0.086-0.751 0.148-1.625 0.086-2.474-0.111-1.575-0.603-2.855-1.391-3.84-0.751-0.935-1.797-1.686-3.089-2.105-1.28-0.418-3.040-0.554-4.615-0.283-2.855 0.492-4.862 2.105-6.043 4.345-0.615 1.169-1.034 2.523-1.034 4.197 0 1.292 0.32 2.289 0.837 3.077 0.16 0.246 0.406 0.455 0.566 0.738 0.234 0.406-0.037 0.997-0.148 1.428-0.135 0.517-0.148 1.243-0.763 1.255-0.246 0-0.566-0.185-0.788-0.295-1.6-0.886-2.585-2.498-2.978-4.591-0.246-1.268-0.246-2.757 0-3.988 0.234-1.194 0.665-2.289 1.157-3.175 0.997-1.846 2.474-3.323 4.258-4.382 1.378-0.812 2.929-1.378 4.812-1.662 0.628-0.086 1.28-0.123 1.982-0.16 2.055-0.098 3.914 0.369 5.329 0.997 1.489 0.665 2.658 1.551 3.668 2.646 1.034 1.12 1.785 2.437 2.265 4.074 0.246 0.849 0.492 1.76 0.492 2.818s-0.222 1.994-0.382 2.917c-0.591 3.483-2.24 6.326-4.726 7.951-0.603 0.394-1.329 0.751-2.166 0.997-0.825 0.234-1.76 0.418-2.757 0.345-0.972-0.062-1.772-0.332-2.437-0.714s-1.218-0.837-1.625-1.526l0.012 0.012z"></path>
</symbol>
<symbol id="icon-seo" viewBox="0 0 34 32">
<path d="M7.258 18.834c0.212 0 0.414 0.048 0.598 0.125l5.301 2.41c0.501 0.231 0.848 0.733 0.848 1.32 0 0.8-0.646 1.446-1.446 1.446-0.212 0-0.414-0.048-0.598-0.125l-5.301-2.41c-0.501-0.222-0.848-0.733-0.848-1.32 0-0.8 0.646-1.446 1.446-1.446zM7.258 13.533c0.212 0 0.414 0.048 0.598 0.125l5.301 2.41c0.501 0.231 0.848 0.733 0.848 1.32 0 0.8-0.646 1.446-1.446 1.446-0.212 0-0.414-0.048-0.598-0.125l-5.301-2.41c-0.501-0.231-0.848-0.733-0.848-1.32 0-0.8 0.646-1.446 1.446-1.446zM7.258 8.231c0.212 0 0.414 0.048 0.598 0.125l5.301 2.41c0.501 0.231 0.848 0.733 0.848 1.32 0 0.8-0.646 1.446-1.446 1.446-0.212 0-0.414-0.048-0.598-0.125l-5.301-2.41c-0.501-0.222-0.848-0.733-0.848-1.32 0-0.8 0.646-1.446 1.446-1.446zM20.636 21.369v0l5.301-2.41c0.183-0.087 0.386-0.125 0.598-0.125 0.8 0 1.446 0.646 1.446 1.446 0 0.588-0.347 1.089-0.848 1.32l-5.301 2.41c-0.183 0.087-0.386 0.125-0.598 0.125-0.8 0-1.446-0.646-1.446-1.446 0-0.588 0.347-1.089 0.848-1.32zM20.636 16.067v0l5.301-2.41c0.183-0.087 0.386-0.125 0.598-0.125 0.8 0 1.446 0.646 1.446 1.446 0 0.588-0.347 1.089-0.848 1.32l-5.301 2.41c-0.183 0.087-0.386 0.125-0.598 0.125-0.8 0-1.446-0.646-1.446-1.446 0-0.588 0.347-1.089 0.848-1.32zM20.636 10.766l5.301-2.41c0.183-0.087 0.386-0.125 0.598-0.125 0.8 0 1.446 0.646 1.446 1.446 0 0.588-0.347 1.089-0.848 1.32l-5.301 2.41c-0.183 0.087-0.386 0.125-0.598 0.125-0.8 0-1.446-0.646-1.446-1.446 0-0.588 0.347-1.089 0.848-1.32zM29.427 4.125l-11.084 4.588v19.036l11.084-4.588v-19.036zM15.451 8.713l-11.084-4.588v19.036l11.084 4.588c0 0 0-19.036 0-19.036zM31.412 25.475l-13.947 5.773c-0.174 0.077-0.366 0.116-0.569 0.116s-0.395-0.039-0.569-0.116l-13.947-5.773c-0.53-0.212-0.906-0.733-0.906-1.34v-22.169c0-0.8 0.646-1.446 1.446-1.446 0.193 0 0.386 0.039 0.549 0.116v0c0 0 0 0 0.010 0l13.407 5.552 13.407-5.552c0 0 0 0 0.010 0v0c0.174-0.067 0.357-0.116 0.549-0.116 0.8 0 1.446 0.646 1.446 1.446v22.169c0 0.607-0.376 1.128-0.906 1.34h0.019z"></path>
</symbol>
<symbol id="icon-twitter" viewBox="0 0 33 32">
<path d="M21.92 2.535c2.498-0.049 3.84 0.862 5.108 2.031 1.083-0.086 2.486-0.689 3.311-1.12 0.271-0.148 0.542-0.295 0.8-0.443-0.468 1.28-1.108 2.277-2.092 3.028-0.222 0.172-0.443 0.394-0.714 0.505v0c1.403 0 2.56-0.628 3.655-0.972v0c-0.578 0.935-1.354 1.858-2.191 2.535-0.332 0.271-0.677 0.529-1.009 0.8 0.012 1.489-0.025 2.905-0.295 4.148-1.612 7.249-5.895 12.185-12.665 14.289-2.425 0.763-6.363 1.071-9.145 0.382-1.378-0.345-2.634-0.726-3.803-1.243-0.652-0.283-1.255-0.591-1.834-0.948-0.185-0.123-0.382-0.234-0.566-0.345 0.628 0.012 1.366 0.197 2.068 0.086 0.64-0.111 1.255-0.074 1.846-0.209 1.465-0.32 2.757-0.751 3.877-1.403 0.542-0.32 1.366-0.689 1.748-1.145-0.726 0-1.391-0.16-1.92-0.345-2.092-0.738-3.311-2.092-4.098-4.135 0.628 0.074 2.462 0.234 2.892-0.123-0.8-0.049-1.563-0.505-2.117-0.849-1.686-1.058-3.052-2.818-3.040-5.538 0.222 0.111 0.443 0.209 0.665 0.32 0.418 0.185 0.849 0.271 1.354 0.382 0.209 0.049 0.64 0.172 0.886 0.086h-0.037c-0.32-0.382-0.849-0.628-1.182-1.034-1.083-1.342-2.092-3.409-1.452-5.871 0.16-0.615 0.418-1.169 0.689-1.686 0 0 0.025 0 0.037 0.012 0.123 0.258 0.406 0.455 0.591 0.677 0.554 0.689 1.231 1.292 1.92 1.846 2.363 1.846 4.48 2.978 7.902 3.815 0.862 0.209 1.858 0.382 2.892 0.382-0.283-0.849-0.197-2.215 0.037-3.028 0.578-2.055 1.822-3.545 3.655-4.345 0.443-0.185 0.923-0.332 1.44-0.443 0.258-0.025 0.517-0.062 0.788-0.098v0z"></path>
</symbol>
<symbol id="icon-web-design" viewBox="0 0 34 32">
<path d="M6.4 16.472v0l3.855-2.41c0.222-0.135 0.482-0.212 0.761-0.212 0.299 0 0.578 0.096 0.81 0.251v0l6.39 4.251 7.364-5.195c0.241-0.174 0.54-0.28 0.848-0.28 0.8 0 1.446 0.646 1.446 1.446 0 0.482-0.241 0.906-0.598 1.166l-8.193 5.783c-0.241 0.174-0.53 0.27-0.848 0.27s-0.598-0.096-0.829-0.26l-6.419-4.28-3.027 1.889c-0.231 0.164-0.511 0.251-0.819 0.251-0.8 0-1.446-0.646-1.446-1.446 0-0.52 0.28-0.974 0.694-1.234l0.010 0.010zM29.32 3.711h-25.060v25.060h25.060v-25.060zM30.766 31.663h-27.952c-0.8 0-1.446-0.646-1.446-1.446v-27.952c0-0.8 0.646-1.446 1.446-1.446h27.952c0.8 0 1.446 0.646 1.446 1.446v27.952c0 0.8-0.646 1.446-1.446 1.446z"></path>
</symbol>
</defs>
</svg>
